<svg xmlns="http://www.w3.org/2000/svg" viewBox="0 0 32 32" width="32" height="32">
  <rect width="32" height="32" rx="6" fill="#0B1E2D"/>
  <g transform="translate(5.5722 -19.3336) scale(0.095502)">
    <path transform="matrix(1,0,0,-1,1,496.9845)" d="M175.5938 189.9516C154.2152 172.5239 144.4929 146.5974 143.6505 121.8648 143.2587 110.3635 145.7898 100.9346 148.1477 89.4574H109.5508 109.1699 108.9252 108.5321 108.2979 107.8971 107.6689 107.2653 107.0379 106.6363 106.4052 106.0104 68.2302C70.5883 100.9346 73.1191 110.3635 72.7277 121.8648 71.8849 146.5974 62.1629 172.5239 40.784 189.9516 59.5684 187.3641 73.9514 178.8769 85.1513 166.1216 78.6107 169.5008 71.7361 171.7305 64.2472 171.841 72.5879 161.46 78.8372 150.7674 82.8748 139.7455 86.7728 129.1054 88.6105 118.1577 88.2802 106.8874H101.9911V198.6299C96.1296 198.4238 90.2174 197.915 84.2547 197.1017 95.5205 216.2052 102.8106 234.6457 107.5399 252.6596 112.8858 232.9489 120.4415 214.2706 131.2339 197.1017 125.3747 197.934 119.4627 198.4487 113.4975 198.6449V106.8874H128.0976C127.7677 118.1577 129.6054 129.1054 133.5033 139.7455 137.541 150.7674 143.79 161.46 152.1309 171.841 144.6418 171.7305 137.7675 169.5008 131.2268 166.1216 142.4268 178.8769 156.8098 187.3641 175.5938 189.9516ZM96.2459 20.8437C98.1717 20.6555 100.0868 20.5138 101.9911 20.4185V69.2368H70.4673V80.7432H101.9911 113.4975 145.0216V69.2368H113.4975V20.4097C115.4239 20.5055 117.339 20.6501 119.2428 20.8437 113.9598 14.8218 110.2609 8.2701 107.6443 1.3567 105.3289 7.6751 101.7607 14.1429 96.2459 20.8437" fill="#F4F6F7" fill-rule="evenodd"/>
  </g>
</svg>
