<svg xmlns="http://www.w3.org/2000/svg" xmlns:xlink="http://www.w3.org/1999/xlink" xmlns:inkscape="http://www.inkscape.org/namespaces/inkscape" version="1.1" width="138.81" height="255.30" viewBox="39.78 242.32 138.81 255.30">
<g inkscape:groupmode="layer" inkscape:label="Layer 1">
<path transform="matrix(1,0,0,-1,1,496.9845)" d="M307.4596 80.3778C307.4596 75.0626 305.7398 67.7299 297.5751 65.2842 294.5696 64.4009 290.6606 64.3907 287.655 65.2762 279.6041 67.6539 277.1963 74.8315 276.9823 80.149 276.9823 85.3506 278.9674 92.5529 287.0439 94.801 289.9548 95.6265 294.0644 95.6186 297.0108 94.8725 305.3806 92.7468 307.3637 85.6619 307.4596 80.3778ZM310.28 210.242C307.5109 210.3582 305.4677 211.1644 303.6912 212.3935 300.2505 214.77 301.6324 215.4702 299.3964 217.19 299.2836 201.5966 298.7306 169.3987 308.1285 157.5369L306.311 162.2041C311.8258 160.073 313.5844 164.5418 314.9016 168.5276 317.9852 177.8587 317.2581 181.1676 322.9546 191.6266L325.9457 196.2224C327.9498 198.8799 328.716 198.7217 329.6829 200.7558 322.4707 199.6875 321.2651 197.68 317.0339 195.9905 317.829 198.2166 320.7767 201.7585 322.0994 203.1157 327.6621 208.8224 338.4488 214.4979 347.1656 215.9566 346.5275 214.2102 346.2197 214.4443 344.9095 212.5763 342.6956 209.4202 341.0206 205.5949 339.6855 201.8622 336.5495 193.0918 337.4005 186.5387 336.3398 183.9056 333.6877 186.8777 333.7401 193.1956 333.8226 197.6933L332.7454 196.2782C332.4946 195.8477 332.2035 195.2118 331.9826 194.758 324.4334 179.2037 322.8219 160.5481 329.383 144.3268 330.2116 142.2782 331.7831 139.4521 332.286 137.6308 325.9213 140.7671 314.7352 149.7291 303.0823 142.4109 299.3751 140.0834 299.0795 139.4065 296.5615 136.2492L302.8212 139.0439 302.8691 129.1774C304.6581 128.8573 306.3966 128.4491 308.0863 127.9562 312.8528 126.5409 317.1643 124.626 321.0197 122.2294 324.8751 119.8361 328.2956 117.0068 331.24 113.7671 334.2042 110.5517 336.6913 107.1079 338.6985 103.4799 340.706 99.8521 342.2115 96.0894 343.2376 92.1881 344.2637 88.2882 344.789 84.5019 344.789 80.8061 344.789 76.8815 344.287 72.8901 343.2832 68.8751 342.2806 64.838 340.774 60.9378 338.7665 57.1975 336.7602 53.4546 334.2969 49.9416 331.3525 46.6571 328.4104 43.3494 325.0111 40.4753 321.1569 38.0341 317.3014 35.5706 312.9911 33.6557 308.2235 32.2404 306.5071 31.7398 304.736 31.3282 302.9071 31.0059V0H282.5093V30.9489C280.512 31.2871 278.5825 31.733 276.7201 32.2863 271.8845 33.7003 267.5271 35.6386 263.6271 38.1022 259.7261 40.5434 256.2812 43.4174 253.3167 46.7031 250.3746 50.0097 247.8878 53.5238 245.9027 57.2644 243.9176 61.0058 242.4353 64.8836 241.4316 68.8986 240.4278 72.9133 239.9272 76.8815 239.9272 80.8061 239.9272 84.8877 240.4278 88.9719 241.4316 93.0325 242.4353 97.0707 243.9176 100.9261 245.9027 104.5517 247.8878 108.1797 250.3746 111.5544 253.3167 114.6804 256.2812 117.8053 259.7261 120.4974 263.6271 122.7557 267.5271 125.0365 271.8845 126.8164 276.7201 128.1158 278.5558 128.5997 280.4562 128.9968 282.4223 129.3012L282.3888 139.0249 288.5907 136.2971C287.1564 140.747 278.7588 145.4063 271.4808 145.0159 262.4148 144.5298 257.9695 140.0119 253.0936 137.6342 253.8198 140.2719 256.3345 143.9631 258.2317 151.2102 262.0023 165.6167 259.8143 183.1093 252.7702 196.0282L251.5615 197.6879C251.6462 193.2123 251.6964 186.8788 249.0432 183.9056 247.8555 186.8443 249.2237 201.1226 239.3294 214.0586 238.3211 215.3755 238.7415 214.4854 238.212 215.9631 245.0908 214.77 251.0161 211.8022 256.0034 208.7476 258.7289 207.0782 261.129 205.2859 263.0962 203.3042 264.4747 201.9146 267.5327 198.271 268.3491 195.9925 264.2941 197.6287 262.7974 199.7042 255.6989 200.7558 256.3268 199.4332 260.0651 195.9582 262.4295 191.6266 271.2464 175.4631 268.9515 158.3118 278.9416 162.2477 278.6204 160.1422 277.8253 159.3258 277.2533 157.5312 280.512 161.5697 281.1453 163.1823 282.5172 169.0072 283.6491 173.8171 284.3529 178.8715 284.8448 183.9044 285.9231 194.9241 286.0603 206.0589 285.9866 217.2002L285.5171 216.7027C285.2997 216.4428 285.0766 216.1684 284.9383 215.9768 282.6366 212.7926 280.6413 210.4897 275.1097 210.2443 275.7798 212.2316 276.6821 212.8864 277.899 215.418 282.5362 225.0692 285.2773 232.16 288.8016 242.5082 289.5131 244.597 291.7738 252.6123 292.6916 254.0166L300.5237 231.6124C302.8224 225.5712 304.4585 221.2138 307.3436 215.6576 307.7005 214.9719 308.1677 214.0104 308.6796 213.2065 309.6799 211.6327 309.7179 211.934 310.28 210.242ZM302.9026 122.5261 302.9953 103.595 282.5093 103.5692 282.4435 123.0046 282.1737 122.8929C279.322 121.7064 276.7881 120.0413 274.6225 117.919 272.4321 115.7978 270.5839 113.3118 269.0561 110.4602 267.5494 107.6085 266.3184 104.5517 265.3614 101.2895 264.4021 98.0042 263.7187 94.5836 263.2859 91.025 262.851 87.4661 262.6458 83.9086 262.6458 80.3957 262.7371 76.974 263.0339 73.461 263.5591 69.8788 264.06 66.2754 264.8585 62.8305 265.93 59.5003 267.0041 56.1926 268.3256 53.0666 269.9226 50.1245 271.5432 47.1827 273.458 44.6264 275.6718 42.4383 277.6859 40.4643 279.9598 38.8817 282.5093 37.6517V57.2142H302.9071V37.4165C305.5927 38.6578 307.978 40.3004 310.0246 42.368 312.1693 44.5139 313.9948 47.0231 315.4771 49.8971 316.9814 52.7709 318.1915 55.8726 319.1272 59.2495 320.0618 62.6029 320.7464 66.1382 321.1569 69.8332 321.5908 73.529 321.7961 77.2696 321.7961 81.057 321.749 84.9345 321.476 88.6986 320.9516 92.3488 320.4499 96.0214 319.6738 99.464 318.6465 102.7261 317.6206 105.9659 316.3212 108.9323 314.7466 111.6011 313.1728 114.27 311.2792 116.5963 309.0677 118.5591 307.222 120.1929 305.1723 121.5111 302.9026 122.5261" fill="#1a1a18"/>
<path transform="matrix(1,0,0,-1,1,496.9845)" d="M35.6737 388.6838H13.9465V389.8791C15.1311 389.8791 16.0929 390.0115 16.8239 390.2559 17.5657 390.5096 18.1412 390.8313 18.5615 391.2406 18.9822 391.6613 19.2699 392.1375 19.4255 392.6684 19.5693 393.2104 19.6461 393.7864 19.6461 394.3953V432.6593H15.5293C14.3884 432.6593 13.1822 432.5596 11.9203 432.3824 10.6481 432.1939 9.3971 431.8393 8.1349 431.3086 6.8845 430.778 5.6784 430.0464 4.5045 429.1172 3.342 428.1877 2.2802 426.9807 1.328 425.4868L0 425.6861C.5868 426.5938 1.0293 427.5896 1.3388 428.6857 1.66 429.7703 1.904 430.8106 2.0693 431.7846 2.2465 432.902 2.3573 434.0429 2.4015 435.1822H47.6053C47.2958 434.5855 47.0625 433.9539 46.8862 433.3008 46.7201 432.6593 46.5758 432.0167 46.4652 431.375 46.3544 430.7326 46.2889 430.1354 46.2549 429.5599 46.2217 428.9842 46.2107 428.4865 46.2107 428.0542 46.2107 427.811 46.2107 427.6006 46.2107 427.4237 46.2107 427.2355 46.2217 427.0805 46.2438 426.9475 46.266 426.7925 46.2889 426.6592 46.3107 426.5269L45.104 426.3279C45.0156 427.3016 44.7384 428.1429 44.2738 428.8289 43.8092 429.5265 43.2442 430.1019 42.5582 430.5674 41.8827 431.0317 41.1304 431.3974 40.3002 431.6854 39.4815 431.962 38.6841 432.1721 37.8873 432.3155 37.1013 432.4601 36.3597 432.5488 35.6737 432.5927 34.9761 432.6367 34.4225 432.6593 34.0129 432.6593H29.9628V394.3953C29.9628 393.9633 30.0285 393.4879 30.1618 392.9675 30.2834 392.4473 30.5603 391.9601 30.9696 391.5062 31.3792 391.0524 31.9552 390.6646 32.6959 390.3554 33.4494 390.0453 34.4344 389.8791 35.6737 389.8791ZM39.8883 359.8855 42.9463 381.9495H43.4018L52.3803 363.8497 61.302 381.9495H61.6351L64.8105 359.8855H62.6746L60.4621 375.6804 52.6467 359.8855H52.073L44.1754 375.8034 42.0599 359.8855ZM91.1254 376.2028V359.8855H89.0357V362.6921C88.1546 361.6217 87.1713 360.8175 86.0751 360.2849 84.9844 359.7523 83.7859 359.4858 82.4902 359.4858 80.1853 359.4858 78.2135 360.3206 76.5799 361.9905 74.9458 363.6652 74.1314 365.6934 74.1314 368.0904 74.1314 370.4309 74.9563 372.4387 76.6054 374.1029 78.2493 375.7677 80.2315 376.6022 82.5517 376.6022 83.8882 376.6022 85.0969 376.3208 86.1831 375.7572 87.2634 375.194 88.2162 374.3436 89.0357 373.2018V376.2028ZM82.7158 374.5743C81.5477 374.5743 80.4671 374.2875 79.4837 373.7137 78.4953 373.1454 77.7118 372.3412 77.1279 371.3066 76.5439 370.2719 76.252 369.176 76.252 368.0184 76.252 366.8766 76.5439 365.7804 77.133 364.7358 77.7217 363.691 78.5106 362.8766 79.5042 362.2978 80.498 361.7138 81.5632 361.4219 82.7002 361.4219 83.8423 361.4219 84.9334 361.7087 85.9575 362.2873 86.9871 362.8661 87.7757 363.6448 88.3287 364.6329 88.882 365.6166 89.1587 366.7277 89.1587 367.9622 89.1587 369.8419 88.5387 371.4143 87.2943 372.6794 86.0547 373.9442 84.5289 374.5743 82.7158 374.5743ZM101.1889 376.2028H103.3401V373.8163C103.9802 374.7586 104.6563 375.4553 105.368 375.916 106.0801 376.3721 106.8225 376.6022 107.591 376.6022 108.1749 376.6022 108.7943 376.418 109.4553 376.0492L108.3591 374.2875C107.9186 374.4768 107.5499 374.5743 107.248 374.5743 106.5461 374.5743 105.87 374.2875 105.2195 373.7137 104.5692 373.14 104.0723 372.244 103.7293 371.0353 103.468 370.1083 103.3401 368.2284 103.3401 365.4011V359.8855H101.1889ZM118.0899 382.902C118.5664 382.902 118.9709 382.733 119.3091 382.39 119.647 382.0518 119.8159 381.6371 119.8159 381.1606 119.8159 380.6895 119.647 380.2796 119.3091 379.942 118.9709 379.5987 118.5664 379.4295 118.0899 379.4295 117.6188 379.4295 117.2194 379.5987 116.8812 379.942 116.5433 380.2796 116.3741 380.6895 116.3741 381.1606 116.3741 381.6371 116.5433 382.0518 116.8812 382.39 117.2194 382.733 117.6188 382.902 118.0899 382.902ZM117.0505 376.2028H119.1399V359.8855H117.0505ZM129.6337 376.2028H131.7231V373.2786C132.5684 374.3949 133.5005 375.23 134.5198 375.7779 135.5443 376.3259 136.6554 376.6022 137.859 376.6022 139.0833 376.6022 140.169 376.2952 141.1163 375.6753 142.0639 375.0557 142.7655 374.2211 143.2162 373.1712 143.6669 372.126 143.8926 370.4922 143.8926 368.2746V359.8855H141.8026V367.6601C141.8026 369.5346 141.7207 370.7895 141.5619 371.4194 141.306 372.4948 140.8348 373.3041 140.1432 373.8521 139.4521 374.3949 138.5504 374.6665 137.4392 374.6665 136.1639 374.6665 135.0215 374.2466 134.0178 373.4067 133.0087 372.5717 132.3431 371.5319 132.0256 370.2926 131.826 369.4833 131.7231 368.0084 131.7231 365.8623V359.8855H129.6337ZM168.2762 365.294 170.0484 364.3617C169.4645 363.2298 168.7935 362.3131 168.0304 361.6166 167.2671 360.9249 166.4118 360.3923 165.4591 360.0286 164.5016 359.6649 163.4261 359.4858 162.2225 359.4858 159.5489 359.4858 157.4646 360.3566 155.9588 362.0979 154.4528 363.8392 153.6999 365.8059 153.6999 367.998 153.6999 370.0621 154.3402 371.9058 155.6152 373.5193 157.2287 375.573 159.3952 376.6022 162.1043 376.6022 164.8959 376.6022 167.129 375.5475 168.7935 373.4425 169.9764 371.9571 170.5808 370.1032 170.6014 367.8752H155.8511C155.8922 365.9854 156.5014 364.4385 157.674 363.2349 158.8521 362.0262 160.3069 361.4219 162.0329 361.4219 162.8677 361.4219 163.6818 361.5653 164.4707 361.8522 165.2596 362.139 165.9305 362.518 166.4836 362.9942 167.0366 363.4705 167.6358 364.2335 168.2762 365.294ZM168.2966 369.6883C168.0151 370.8099 167.6052 371.7011 167.0672 372.3718 166.5247 373.0431 165.8129 373.5805 164.9268 373.9904 164.0404 374.4 163.1086 374.6049 162.1352 374.6049 160.522 374.6049 159.139 374.093 157.9819 373.0632 157.1315 372.3106 156.4965 371.1889 156.0609 369.6883ZM231.9928 382.1766H236.4557C239.0114 382.1766 240.7416 382.068 241.6354 381.8446 242.9133 381.5271 243.9575 380.8831 244.7683 379.9012 245.5838 378.9244 245.9889 377.693 245.9889 376.2125 245.9889 374.722 245.5943 373.4957 244.7989 372.524 244.0097 371.5577 242.9186 370.9086 241.5319 370.5707 240.5132 370.3266 238.6174 370.207 235.8377 370.207H234.2375V359.7962H231.9928ZM234.2375 379.9947V372.3888L238.0297 372.3423C239.5624 372.3423 240.6849 372.4826 241.3964 372.7627 242.1079 373.0439 242.6692 373.4901 243.0743 374.1143 243.4799 374.7376 243.682 375.4386 243.682 376.2074 243.682 376.9554 243.4799 377.6468 243.0743 378.2699 242.6692 378.8935 242.1292 379.3351 241.4639 379.5999 240.7989 379.8649 239.7129 379.9947 238.1961 379.9947ZM274.8716 376.348V359.7962H272.7516V362.643C271.8584 361.5576 270.8609 360.7413 269.7491 360.2013 268.6422 359.6607 267.427 359.3908 266.1126 359.3908 263.7746 359.3908 261.7747 360.2378 260.1173 361.9315 258.4602 363.63 257.6336 365.6877 257.6336 368.119 257.6336 370.4927 258.4706 372.5291 260.1431 374.218 261.811 375.9063 263.8213 376.753 266.1749 376.753 267.5307 376.753 268.757 376.467 269.8583 375.8956 270.9547 375.3241 271.9205 374.4621 272.7516 373.3033V376.348ZM266.3408 374.6959C265.1564 374.6959 264.0606 374.4045 263.0631 373.8231 262.0604 373.246 261.2656 372.4305 260.6726 371.3814 260.0807 370.3314 259.7851 369.2203 259.7851 368.0459 259.7851 366.8873 260.0807 365.7756 260.6783 364.716 261.2758 363.6558 262.076 362.8301 263.0837 362.2431 264.0917 361.6506 265.1717 361.3547 266.3254 361.3547 267.4843 361.3547 268.5903 361.6455 269.6292 362.2329 270.6738 362.8193 271.474 363.6094 272.0347 364.6123 272.596 365.6098 272.8766 366.7365 272.8766 367.9892 272.8766 369.8952 272.2482 371.49 270.9856 372.7738 269.7282 374.0567 268.1802 374.6959 266.3408 374.6959ZM289.8 382.5198H291.9195V376.348H295.2859V374.5089H291.9195V359.7962H289.8V374.5089H286.901V376.348H289.8ZM306.8062 376.348H308.9259V373.4853C309.6689 374.54 310.4271 375.3136 311.2118 375.8026 312.287 376.4364 313.4197 376.753 314.604 376.753 315.4093 376.753 316.1682 376.5969 316.8899 376.2802 317.6118 375.9687 318.1989 375.5475 318.6561 375.0282 319.1136 374.5035 319.5085 373.7554 319.8464 372.7786 320.5522 374.0774 321.4409 375.0644 322.5005 375.7397 323.5654 376.4149 324.7087 376.753 325.9346 376.753 327.0776 376.753 328.0904 376.4622 328.9635 375.8854 329.8416 375.3088 330.4908 374.5035 330.9168 373.4697 331.3426 372.4362 331.556 370.8879 331.556 368.82V359.7962H329.3742V368.8251C329.3742 370.6021 329.2489 371.8176 328.9946 372.4826 328.7398 373.1477 328.3089 373.6828 327.6958 374.0879 327.0827 374.493 326.3556 374.6959 325.5032 374.6959 324.4745 374.6959 323.5292 374.3892 322.6774 373.7812 321.8202 373.1734 321.1968 372.363 320.802 371.3502 320.4068 370.3371 320.2098 368.6431 320.2098 366.2748V359.7962H318.0903V368.2644C318.0903 370.2589 317.965 371.6152 317.7159 372.3321 317.467 373.0487 317.0356 373.6199 316.4168 374.0513 315.7934 374.4825 315.0615 374.6959 314.2091 374.6959 313.2221 374.6959 312.3026 374.4 311.4456 373.8073 310.5882 373.2154 309.9546 372.4149 309.5436 371.4123 309.1337 370.4094 308.9259 368.8719 308.9259 366.8043V359.7962H306.8062ZM352.1784 376.753C354.7293 376.753 356.849 375.8335 358.5266 373.9893 360.0539 372.3111 360.8178 370.3215 360.8178 368.0252 360.8178 365.7183 360.0125 363.7026 358.3967 361.978 356.7861 360.2534 354.708 359.3908 352.1784 359.3908 349.6329 359.3908 347.5491 360.2534 345.939 361.978 344.323 363.7026 343.518 365.7183 343.518 368.0252 343.518 370.3113 344.2813 372.2956 345.8089 373.9731 347.487 375.8287 349.6116 376.753 352.1784 376.753ZM352.1682 374.6645C350.3962 374.6645 348.8794 374.0153 347.6066 372.7108 346.3333 371.4075 345.6998 369.8277 345.6998 367.9787 345.6998 366.789 345.9909 365.6772 346.5675 364.6431 347.1494 363.6145 347.9335 362.8193 348.9208 362.2586 349.9027 361.6974 350.9884 361.4168 352.1682 361.4168 353.3474 361.4168 354.4328 361.6974 355.415 362.2586 356.4017 362.8193 357.1866 363.6145 357.7683 364.6431 358.3449 365.6772 358.636 366.789 358.636 367.9787 358.636 369.8277 357.9968 371.4075 356.7189 372.7108 355.4456 374.0153 353.9288 374.6645 352.1682 374.6645ZM381.3778 374.5502 380.0066 373.1374C378.8685 374.2384 377.7517 374.7895 376.6663 374.7895 375.9749 374.7895 375.3825 374.5607 374.889 374.1032 374.3952 373.6517 374.146 373.1162 374.146 372.5084 374.146 371.9733 374.349 371.4593 374.7543 370.976 375.1591 370.4771 376.0166 369.8952 377.3154 369.2254 378.8943 368.4093 379.9695 367.615 380.5413 366.8562 381.0977 366.0874 381.3778 365.2197 381.3778 364.2588 381.3778 362.8973 380.8998 361.7498 379.9437 360.8036 378.9879 359.8637 377.7934 359.3908 376.3593 359.3908 375.4035 359.3908 374.4944 359.5986 373.6216 360.0142 372.7542 360.4294 372.037 361.0012 371.4656 361.734L372.8061 363.2562C373.8915 362.0299 375.0503 361.4168 376.2711 361.4168 377.1227 361.4168 377.85 361.6923 378.4527 362.238 379.0502 362.7833 379.3516 363.4277 379.3516 364.1652 379.3516 364.773 379.1543 365.3135 378.7597 365.7915 378.3594 366.2589 377.4657 366.8462 376.0733 367.5523 374.5772 368.3211 373.5595 369.0799 373.0243 369.8277 372.4838 370.5761 372.2134 371.4279 372.2134 372.3888 372.2134 373.6412 372.6448 374.6803 373.502 375.5112 374.3646 376.3369 375.4502 376.753 376.7647 376.753 378.2917 376.753 379.8295 376.0206 381.3778 374.5502ZM205.6436 422.9841 205.6757 432.4144V432.4147L205.8069 432.3603C207.1902 431.7846 208.4196 430.9767 209.4704 429.9469 210.5331 428.9176 211.4303 427.7117 212.1712 426.3279 212.9023 424.944 213.5001 423.4609 213.9642 421.8783 214.4296 420.2836 214.7613 418.6239 214.9713 416.8976 215.1825 415.1707 215.2823 413.4444 215.2823 411.7397 215.2378 410.0794 215.0935 408.3749 214.8386 406.6367 214.5957 404.8883 214.2085 403.2167 213.6883 401.6007 213.1671 399.9957 212.5261 398.4789 211.7509 397.0517 210.9645 395.6241 210.0356 394.3837 208.9613 393.3221 207.9839 392.3643 206.8809 391.5952 205.6436 390.9988V400.4918H195.7462V390.8852C194.4431 391.4875 193.2857 392.2843 192.2927 393.2878 191.2518 394.3293 190.3663 395.5467 189.6469 396.9411 188.9172 398.3355 188.3296 399.8407 187.8755 401.4791 187.4225 403.1065 187.0903 404.8217 186.891 406.6146 186.6807 408.4078 186.5809 410.2228 186.5809 412.0605 186.6036 413.9422 186.7363 415.7685 186.9905 417.5396 187.234 419.3215 187.6107 420.9922 188.1091 422.5751 188.6071 424.1469 189.2373 425.5863 190.0018 426.8812 190.7649 428.1763 191.6838 429.3051 192.757 430.2573 193.6522 431.0507 194.6466 431.6896 195.7484 432.1823L195.7034 422.9966ZM205.6859 435.4699 205.702 440.1882 202.6928 438.8644C203.3889 441.0235 207.4635 443.2847 210.9949 443.0951 215.394 442.859 217.5511 440.6669 219.9169 439.5132 219.5646 440.7931 218.3443 442.5843 217.4238 446.1007 215.5944 453.0912 216.6559 461.579 220.0737 467.8475L220.6604 468.6528C220.6193 466.4812 220.595 463.4079 221.8825 461.965 222.4585 463.3911 221.7946 470.3196 226.5956 476.5961 227.0849 477.2353 226.8808 476.8033 227.1376 477.5204 223.8001 476.9413 220.9249 475.501 218.5053 474.0188 217.1823 473.2092 216.0179 472.3396 215.0631 471.3778 214.3945 470.7034 212.9105 468.9354 212.5145 467.8302 214.482 468.6239 215.2083 469.6311 218.6527 470.1413 218.3482 469.4995 216.5343 467.8135 215.3869 465.7113 211.1085 457.869 212.2226 449.5467 207.375 451.4562 207.5306 450.4346 207.9164 450.0383 208.194 449.1677 206.6131 451.1271 206.3055 451.9097 205.6399 454.7361 205.0906 457.0702 204.7493 459.5224 204.5106 461.9648 203.9873 467.3117 203.9207 472.7143 203.9564 478.1205L204.1843 477.8793 204.465 477.5267C205.5818 475.9821 206.5501 474.8644 209.234 474.7453 208.9089 475.71 208.4712 476.0271 207.881 477.2557 205.6309 481.9388 204.3006 485.3792 202.5904 490.4005 202.2454 491.4142 201.1482 495.3033 200.7031 495.9845L196.9027 485.1139C195.7873 482.1823 194.9936 480.0679 193.5933 477.3719 193.4203 477.0391 193.1936 476.5725 192.9453 476.1825 192.4597 475.4188 192.4415 475.5651 192.1686 474.7442 193.5125 474.8006 194.504 475.1918 195.3658 475.7879 197.0351 476.9413 196.3647 477.2812 197.4498 478.1154 197.5042 470.5492 197.7727 454.926 193.2126 449.1706L194.0947 451.4352C191.4188 450.4011 190.5656 452.5693 189.9261 454.5034 188.43 459.0309 188.7826 460.6367 186.0188 465.7113L184.5675 467.9416C183.5949 469.2314 183.223 469.1543 182.7541 470.1413 186.2535 469.6228 186.8386 468.6489 188.8917 467.8288 188.5059 468.9091 187.0756 470.6277 186.4335 471.2862 183.7346 474.0557 178.5008 476.8092 174.2709 477.517 174.5807 476.6695 174.7298 476.7834 175.3659 475.8769 176.44 474.3454 177.2527 472.4895 177.9004 470.6782 179.422 466.4225 179.0093 463.2429 179.5238 461.965 180.8107 463.4073 180.7852 466.473 180.7452 468.6554L181.2679 467.9685C181.3895 467.7596 181.531 467.4512 181.6381 467.2307 185.3011 459.6837 186.0829 450.6313 182.8993 442.7606 182.4976 441.7665 181.7351 440.3954 181.491 439.5115 184.5791 441.0332 190.0069 445.3818 195.6614 441.8308 197.46 440.7018 197.6031 440.373 198.8252 438.8409L195.7878 440.1972 195.7646 435.4098H195.7643C194.8969 435.2547 194.053 435.0569 193.2333 434.8174 190.9205 434.1305 188.8285 433.2013 186.9576 432.0383 185.0868 430.8772 183.4271 429.5041 181.9984 427.9323 180.5598 426.3721 179.3531 424.7011 178.3791 422.9408 177.4052 421.1807 176.6747 419.3546 176.1769 417.4617 175.6791 415.569 175.424 413.7324 175.424 411.9386 175.424 410.0346 175.6675 408.0977 176.1548 406.1494 176.6415 404.191 177.3723 402.298 178.3463 400.4833 179.3197 398.6674 180.5153 396.9629 181.944 395.369 183.3712 393.764 185.021 392.3694 186.891 391.1851 188.7616 389.9897 190.8536 389.0602 193.1664 388.3737 193.9992 388.1307 194.8589 387.9309 195.7462 387.7744V372.7301H205.6436V387.7478C206.6131 387.9113 207.5491 388.1273 208.4528 388.3961 210.7993 389.082 212.9134 390.0223 214.8058 391.218 216.6985 392.4026 218.37 393.7972 219.8086 395.3911 221.2364 396.9955 222.4429 398.7009 223.4061 400.5159 224.369 402.3317 225.0884 404.2128 225.5754 406.1611 226.0627 408.1093 226.3056 410.0346 226.3056 411.9386 226.3056 413.9192 226.0627 415.9009 225.5754 417.8713 225.0884 419.8309 224.369 421.7014 223.4061 423.4609 222.4429 425.2212 221.2364 426.8588 219.8086 428.3751 218.37 429.8916 216.6985 431.1981 214.8058 432.294 212.9134 433.4006 210.7993 434.2643 208.4528 434.8947 207.5621 435.1294 206.6403 435.3216 205.6859 435.4699ZM193.5374 411.7311C193.5374 409.1519 194.3717 405.5939 198.3336 404.4073 199.7918 403.9784 201.6882 403.9739 203.1469 404.4033 207.053 405.5573 208.2217 409.0402 208.3255 411.6203 208.3255 414.1443 207.3623 417.6388 203.4434 418.7299 202.0311 419.1299 200.037 419.1262 198.6072 418.7642 194.546 417.7327 193.5836 414.2948 193.5374 411.7311ZM98.2871 389.0713C96.3179 388.2742 94.5468 387.7313 92.9642 387.4555 91.3918 387.1675 89.9974 387.0343 88.78 387.0343 87.2748 387.0343 85.7585 387.4329 84.2647 388.2297 82.7583 389.0265 81.3087 390.0569 79.9143 391.2959 78.52 392.5355 77.2135 393.9197 75.9733 395.4246 74.7454 396.9411 73.6379 398.4245 72.6531 399.8735 71.6675 401.3237 70.8384 402.641 70.1515 403.8259 69.476 405.0207 68.9893 405.9062 68.7127 406.482 71.458 406.9355 73.9151 407.766 76.0731 408.9506 77.0034 409.4705 77.9114 410.0905 78.7963 410.7988 79.6813 411.5177 80.4674 412.3593 81.1641 413.3339 81.8504 414.2959 82.4156 415.4139 82.8363 416.6651 83.2564 417.9271 83.4676 419.3546 83.4676 420.948 83.4676 422.3985 83.2793 423.7155 82.9137 424.889 82.5483 426.0617 82.061 427.1136 81.4521 428.0323 80.8549 428.9508 80.1465 429.7365 79.3494 430.401 78.5523 431.0654 77.7121 431.6071 76.8481 432.0383 75.9847 432.4708 75.1212 432.7917 74.236 432.9907 73.3618 433.2013 72.5536 433.3008 71.7897 433.3008 70.6499 433.3008 69.6974 433.1903 68.9562 432.9468 68.2143 432.7138 67.6171 432.3932 67.1851 431.9946 66.7536 431.5859 66.4551 431.1201 66.2995 430.6003 66.1334 430.0693 66.0566 429.5041 66.0566 428.9287V394.3953C66.0566 393.9633 66.1224 393.4879 66.2666 392.9675 66.3993 392.4473 66.6763 391.9601 67.0748 391.5062 67.4725 391.0524 68.0488 390.6646 68.8119 390.3554 69.5648 390.0453 70.5614 389.8791 71.7897 389.8791V388.6838H50.0621V389.8791C51.2138 389.8791 52.1541 390.001 52.8843 390.2216 53.6267 390.4551 54.2018 390.7644 54.6338 391.1635 55.076 391.5618 55.3635 392.027 55.5299 392.5471 55.6965 393.067 55.7736 393.6087 55.7736 394.196V429.7365C55.7736 430.1688 55.6965 430.6329 55.5299 431.1312 55.3635 431.6292 55.076 432.0833 54.6554 432.5037 54.235 432.9351 53.6593 433.2787 52.9183 433.5667 52.1872 433.8434 51.2362 433.9871 50.0621 433.9871V435.1822H71.7897C74.8664 435.1822 77.7557 434.9169 80.4781 434.3746 83.2124 433.832 85.5924 432.9802 87.628 431.8285 89.6766 430.6666 91.2926 429.1946 92.4985 427.3906 93.6938 425.5863 94.2917 423.4167 94.2917 420.8817 94.2917 418.7458 93.8605 416.8755 92.9854 415.2702 92.1112 413.6766 90.9499 412.3037 89.5105 411.1532 88.0829 410.0125 86.4439 409.0612 84.6176 408.3194 82.7923 407.5778 80.9215 406.9803 79.0285 406.5483 79.7587 405.2095 80.5669 403.8701 81.4521 402.5305 82.3382 401.1914 83.2686 399.9076 84.2417 398.6674 85.2157 397.4389 86.2007 396.2988 87.1753 395.2363 88.16 394.1736 89.1227 393.2555 90.053 392.4584 90.9822 391.6726 91.8462 391.0524 92.6651 390.6094 93.473 390.1671 94.1924 389.9458 94.8118 389.9458 95.1225 389.9458 95.5318 389.9789 96.063 390.0453 96.594 390.1113 97.1697 390.2777 97.8001 390.5325ZM122.7929 388.6838H101.0656V389.8791C102.2391 389.8791 103.1905 390.0115 103.9439 390.2559 104.6852 390.5096 105.2719 390.8313 105.692 391.2406 106.113 391.6613 106.401 392.1375 106.5557 392.6684 106.6997 393.2104 106.7769 393.7864 106.7769 394.3953V429.7365C106.7769 430.1688 106.6997 430.6329 106.5334 431.1312 106.3675 431.6292 106.0795 432.0833 105.6591 432.5037 105.2388 432.9351 104.6631 433.2787 103.9212 433.5667 103.1905 433.8434 102.2391 433.9871 101.0656 433.9871V435.1822H122.7929V433.9871C121.6089 433.9871 120.6351 433.8655 119.8933 433.6106 119.1518 433.3674 118.5653 433.0239 118.1449 432.6032 117.7231 432.1828 117.4357 431.7066 117.2812 431.1652 117.1366 430.6218 117.0598 430.0464 117.0598 429.4485V394.3953C117.0598 393.9633 117.1259 393.4879 117.2704 392.9675 117.4034 392.4473 117.6795 391.9601 118.0783 391.5062 118.4769 391.0524 119.0523 390.6646 119.8154 390.3554 120.5688 390.0453 121.5643 389.8791 122.7929 389.8791ZM161.1011 388.6838H139.3741V389.8791C140.5582 389.8791 141.5203 390.0115 142.2516 390.2559 142.9931 390.5096 143.5686 390.8313 143.9892 391.2406 144.4096 391.6613 144.6976 392.1375 144.8532 392.6684 144.9967 393.2104 145.0743 393.7864 145.0743 394.3953V432.6593H140.9567C139.8163 432.6593 138.6099 432.5596 137.3477 432.3824 136.0755 432.1939 134.8243 431.8393 133.5623 431.3086 132.3119 430.778 131.1058 430.0464 129.9328 429.1172 128.7694 428.1877 127.7076 426.9807 126.7554 425.4868L125.4274 425.6861C126.0145 426.5938 126.4569 427.5896 126.7665 428.6857 127.0874 429.7703 127.3314 430.8106 127.4967 431.7846 127.6744 432.902 127.7847 434.0429 127.8298 435.1822H173.0333C172.7232 434.5855 172.4902 433.9539 172.3139 433.3008 172.1477 432.6593 172.0029 432.0167 171.8923 431.375 171.7826 430.7326 171.7166 430.1354 171.6829 429.5599 171.6497 428.9842 171.6384 428.4865 171.6384 428.0542 171.6384 427.811 171.6384 427.6006 171.6384 427.4237 171.6384 427.2355 171.6497 427.0805 171.6715 426.9475 171.6936 426.7925 171.7166 426.6592 171.7379 426.5269L170.5317 426.3279C170.443 427.3016 170.1663 428.1429 169.7009 428.8289 169.2366 429.5265 168.6719 430.1019 167.9854 430.5674 167.3101 431.0317 166.5581 431.3974 165.7276 431.6854 164.9089 431.962 164.1118 432.1721 163.3144 432.3155 162.5287 432.4601 161.7871 432.5488 161.1011 432.5927 160.4035 432.6367 159.8502 432.6593 159.4406 432.6593H155.3902V394.3953C155.3902 393.9633 155.4559 393.4879 155.5892 392.9675 155.7108 392.4473 155.9877 391.9601 156.3973 391.5062 156.8066 391.0524 157.3821 390.6646 158.1242 390.3554 158.8771 390.0453 159.8618 389.8791 161.1011 389.8791ZM231.7513 435.1822H248.0329L272.5835 405.3526V429.7365C272.5835 430.1688 272.4948 430.6329 272.3394 431.1312 272.1742 431.6292 271.8859 432.0833 271.4655 432.5037 271.0446 432.9351 270.4578 433.2787 269.727 433.5667 268.9971 433.8434 268.0449 433.9871 266.8717 433.9871V435.1822H281.2394V433.9871C280.0545 433.9871 279.0913 433.8655 278.35 433.6106 277.6184 433.3674 277.0438 433.0239 276.6118 432.6032 276.1911 432.1828 275.9148 431.7066 275.76 431.1652 275.6047 430.6218 275.527 430.0464 275.527 429.4485V388.6838H272.5835L240.3845 427.5343V394.3953C240.3845 393.9633 240.4511 393.4879 240.5954 392.9675 240.728 392.4473 241.0053 391.9601 241.4032 391.5062 241.8015 391.0524 242.3767 390.6646 243.1188 390.3554 243.8708 390.0453 244.8564 389.8791 246.0855 389.8791V388.6838H231.7513V389.8791C232.9243 389.8791 233.8767 390.0115 234.6296 390.2559 235.3708 390.5096 235.9576 390.8313 236.378 391.2406 236.7984 391.6613 237.0864 392.1375 237.2306 392.6684 237.3849 393.2104 237.4628 393.7864 237.4628 394.3953V431.0654C236.9424 431.6519 236.4664 432.127 236.0353 432.4932 235.6027 432.858 235.1608 433.1568 234.7174 433.3898 234.275 433.6106 233.8209 433.766 233.3458 433.8544 232.8693 433.9434 232.338 433.9871 231.7513 433.9871ZM339.4814 390.3993C337.5105 389.6022 335.7179 389.0602 334.0913 388.7833 332.475 388.4956 331.014 388.3629 329.7186 388.3629 328.6789 388.3629 327.782 388.4182 327.0294 388.5403 326.2652 388.6617 325.624 388.8057 325.0806 388.9715 324.4501 389.1708 323.9079 389.3924 323.4543 389.6246 322.503 390.1671 321.6722 390.8648 320.9635 391.7273 320.2447 392.6018 319.6023 393.5319 319.0269 394.5175 318.4625 395.5136 317.9424 396.5426 317.488 397.6053 317.035 398.6563 316.5919 399.653 316.1599 400.5831L315.3521 402.298C313.1717 401.6786 311.135 400.9584 309.242 400.1505 307.349 399.3321 305.6666 398.5347 304.1952 397.749 302.7229 396.9629 301.4833 396.2327 300.4866 395.5788 299.4795 394.9155 298.7714 394.4395 298.3615 394.13 297.5539 393.2439 296.6573 392.4584 295.6723 391.7611 294.6762 391.0748 293.5582 390.488 292.3294 390.001 291.1008 389.5138 289.7283 389.1379 288.212 388.8831 286.6961 388.6172 285.0352 388.4848 283.2202 388.4848L282.8883 389.8791C284.9913 390.2332 286.7956 390.8974 288.3223 391.8932 289.8507 392.8898 291.1564 394.1184 292.263 395.5788 293.3702 397.0298 294.3111 398.6782 295.0855 400.5051 295.8608 402.3317 296.5578 404.257 297.1556 406.2937 297.51 407.4565 297.9638 408.6958 298.5392 409.991 299.1149 411.2855 299.8009 412.5478 300.6091 413.7653 301.428 414.9935 302.3578 416.1336 303.3981 417.2068 304.4497 418.2695 305.6448 419.1769 306.9845 419.9085 306.6191 420.6059 306.2534 421.314 305.8999 422.0334 305.5456 422.7633 305.2023 423.4946 304.8814 424.2249 304.4273 425.0889 303.9732 426.0399 303.5203 427.0918 303.0661 428.1429 302.5236 429.1172 301.915 430.0132 301.2951 430.9101 300.564 431.663 299.7349 432.2718 298.9046 432.8691 297.8748 433.1795 296.6355 433.1795 295.7717 433.1795 294.931 433.0797 294.1004 432.8804 293.2591 432.6922 292.4736 432.449 291.7094 432.1721L291.2562 433.5001C293.1384 434.1305 295.0413 434.6626 296.9779 435.1051 298.9154 435.5481 300.8302 435.7689 302.7345 435.7689 303.6419 435.7689 304.5379 435.7134 305.4234 435.5923 306.3206 435.4705 307.1727 435.2604 307.9913 434.9616 308.6994 434.6952 309.3973 434.2748 310.0618 433.6767 310.7361 433.0797 311.3785 432.3824 311.9763 431.5742 312.5852 430.7553 313.1495 429.8916 313.681 428.963 314.2117 428.0323 314.7097 427.1029 315.1749 426.1731 315.6401 425.2428 316.0604 424.3572 316.4369 423.5272 316.8128 422.6981 317.1453 421.9778 317.4222 421.3689 319.3262 417.2848 321.2186 413.1893 323.1006 409.0941 324.9811 404.9989 327.007 400.9584 329.1653 396.9848 329.5528 396.2764 329.9737 395.5683 330.4162 394.882 330.8581 394.1847 331.3568 393.5648 331.9106 393.0338 332.4529 392.4913 333.0621 392.0598 333.7367 391.7273 334.4119 391.4065 335.1648 391.252 336.0059 391.2738 336.3046 391.2738 336.725 391.307 337.2568 391.3733 337.788 391.4399 338.3634 391.6054 338.9941 391.8606ZM308.7992 416.1776C308.2351 415.2702 307.7257 414.3297 307.2609 413.3667 306.7963 412.3925 306.3643 411.3961 305.9773 410.3889 305.5898 409.3929 305.2352 408.3857 304.9146 407.3896 304.5827 406.4046 304.2612 405.4521 303.9403 404.5445 303.6087 403.5487 303.2651 402.5747 302.8776 401.6341 302.5018 400.6933 302.0808 399.786 301.6057 398.9007 303.2209 399.852 305.1249 400.8478 307.3054 401.8779 309.4968 402.9182 311.832 403.8032 314.3112 404.5445ZM351.9003 387.8093C349.8962 387.8093 348.2583 387.8538 347.0071 387.9422 345.7463 388.0193 344.7162 388.1305 343.8969 388.2413 343.0678 388.3629 342.3923 388.4621 341.8611 388.5511 341.3404 388.6398 340.7981 388.6838 340.2564 388.6838 340.4996 389.6578 340.6654 390.5439 340.7763 391.3622 340.8868 392.1704 340.9418 392.9233 340.9418 393.6087 340.9418 394.5832 340.8537 395.4906 340.6878 396.3214 340.5101 397.1511 340.3001 398.037 340.0682 398.9662L341.5286 399.0325C342.1259 397.671 343.0335 396.4209 344.2518 395.2803 345.4586 394.1515 346.8078 393.1668 348.3028 392.3365 349.7967 391.4952 351.3467 390.8534 352.9732 390.3883 354.5904 389.9228 356.1389 389.6906 357.6115 389.6906 359.3602 389.6906 360.9655 389.9897 362.4369 390.5983 363.9093 391.2072 365.171 392.0043 366.2331 393.0111 367.2961 394.0189 368.1147 395.1584 368.7129 396.4538 369.3104 397.7376 369.6089 399.0657 369.6089 400.4277 369.6089 401.9108 369.2665 403.128 368.5802 404.0694 367.9053 405.0102 366.9973 405.7628 365.8578 406.3266 364.7279 406.8916 363.4328 407.3122 361.9723 407.5889 360.5114 407.8655 359.0172 408.0977 357.4789 408.2754 356.3388 408.3965 355.0881 408.5518 353.7377 408.729 352.387 408.8948 351.0258 409.1607 349.6643 409.5037 348.3028 409.8472 346.9963 410.3118 345.7352 410.8759 344.4837 411.4517 343.3771 412.1824 342.4031 413.0674 341.4288 413.9535 340.6547 415.038 340.0682 416.3102 339.4814 417.5836 339.1937 419.1111 339.1937 420.8817 339.1937 422.9853 339.6027 424.8116 340.4217 426.3608 341.2409 427.9215 342.3251 429.2612 343.6758 430.3678 345.0382 431.4858 346.5873 432.4039 348.336 433.1234 350.0847 433.8544 351.8889 434.4185 353.7377 434.84 355.5859 435.2715 357.4233 435.5592 359.2497 435.7244 361.076 435.8801 362.7468 435.9682 364.2525 435.9682 365.5806 435.9682 366.8094 435.9237 367.9716 435.8356 369.123 435.7477 370.1962 435.659 371.1813 435.5592 372.1666 435.4597 373.0742 435.371 373.9045 435.293 374.7342 435.2261 375.4981 435.1822 376.1838 435.1822 375.9517 434.1643 375.7859 433.2679 375.6861 432.4819 375.5866 431.6854 375.5418 430.9211 375.5418 430.1906 375.5418 429.2612 375.6197 428.3751 375.7635 427.5448 375.9188 426.7151 376.1291 425.8185 376.3831 424.8782L374.9224 424.8116C374.5786 425.6084 374.2588 426.3942 373.9484 427.1803 373.65 427.9544 373.2843 428.6857 372.8633 429.3607 372.443 430.0464 371.9231 430.6782 371.3148 431.2417 370.694 431.8177 369.9085 432.3155 368.9456 432.7359 367.9824 433.1568 366.7978 433.4777 365.4031 433.7101 364.009 433.9315 362.3264 434.0534 360.3339 434.0534 358.9948 434.0534 357.6895 433.8094 356.4266 433.334 355.1649 432.858 354.0359 432.2052 353.0511 431.375 352.0661 430.5444 351.2798 429.548 350.6715 428.3867 350.0623 427.2355 349.7638 425.9738 349.7638 424.6126 349.7638 423.4277 349.9852 422.4101 350.4283 421.5677 350.8702 420.7269 351.4462 420.0077 352.1653 419.4213 352.8737 418.8453 353.6816 418.3693 354.5785 417.9932 355.4751 417.6278 356.3711 417.3403 357.268 417.1408 358.1646 416.9307 359.0172 416.7865 359.8251 416.6977 360.644 416.6093 361.319 416.554 361.8621 416.5095 362.8689 416.4216 364.0306 416.2884 365.326 416.1229 366.6209 415.9451 367.939 415.6795 369.2772 415.326 370.6279 414.9714 371.9344 414.4952 373.2185 413.9084 374.5134 413.3339 375.6529 412.5702 376.6601 411.6402 377.6672 410.7101 378.4754 409.5916 379.0726 408.2859 379.6821 406.9803 379.9811 405.4306 379.9811 403.6371 379.9811 401.2798 379.5826 399.2542 378.7628 397.55 377.9552 395.856 376.8593 394.4177 375.4757 393.2439 374.0916 392.0598 372.4761 391.1187 370.6279 390.4217 368.7795 389.713 366.8094 389.1708 364.7279 388.7833 362.6359 388.3961 360.5003 388.1305 358.3089 387.9975 356.1174 387.8759 353.9803 387.8093 351.9003 387.8093" fill="#1a1a18" fill-rule="evenodd"/>
<path transform="matrix(1,0,0,-1,1,496.9845)" d="M175.5938 189.9516C154.2152 172.5239 144.4929 146.5974 143.6505 121.8648 143.2587 110.3635 145.7898 100.9346 148.1477 89.4574H109.5508 109.1699 108.9252 108.5321 108.2979 107.8971 107.6689 107.2653 107.0379 106.6363 106.4052 106.0104 68.2302C70.5883 100.9346 73.1191 110.3635 72.7277 121.8648 71.8849 146.5974 62.1629 172.5239 40.784 189.9516 59.5684 187.3641 73.9514 178.8769 85.1513 166.1216 78.6107 169.5008 71.7361 171.7305 64.2472 171.841 72.5879 161.46 78.8372 150.7674 82.8748 139.7455 86.7728 129.1054 88.6105 118.1577 88.2802 106.8874H101.9911V198.6299C96.1296 198.4238 90.2174 197.915 84.2547 197.1017 95.5205 216.2052 102.8106 234.6457 107.5399 252.6596 112.8858 232.9489 120.4415 214.2706 131.2339 197.1017 125.3747 197.934 119.4627 198.4487 113.4975 198.6449V106.8874H128.0976C127.7677 118.1577 129.6054 129.1054 133.5033 139.7455 137.541 150.7674 143.79 161.46 152.1309 171.841 144.6418 171.7305 137.7675 169.5008 131.2268 166.1216 142.4268 178.8769 156.8098 187.3641 175.5938 189.9516ZM96.2459 20.8437C98.1717 20.6555 100.0868 20.5138 101.9911 20.4185V69.2368H70.4673V80.7432H101.9911 113.4975 145.0216V69.2368H113.4975V20.4097C115.4239 20.5055 117.339 20.6501 119.2428 20.8437 113.9598 14.8218 110.2609 8.2701 107.6443 1.3567 105.3289 7.6751 101.7607 14.1429 96.2459 20.8437" fill="#1a1a18" fill-rule="evenodd"/>
</g>
</svg>
